Coordinates
nRows=14
nColumns=24

# SIMM Motion File Header:
name Coordinates
datacolumns 24
datarows 14
otherdata 1
range 0.18833000000000000000 0.20133000000000001000
endheader
time	pelvis_tx	pelvis_ty	pelvis_tz	pelvis_tilt	pelvis_list	pelvis_rotation	hip_flexion_r	hip_adduction_r	hip_rotation_r	knee_angle_r	ankle_angle_r	subtalar_angle_r	mtp_angle_r	hip_flexion_l	hip_adduction_l	hip_rotation_l	knee_angle_l	ankle_angle_l	subtalar_angle_l	mtp_angle_l	lumbar_extension	lumbar_bending	lumbar_rotation
      0.18833000000000000000	      1.33302440712928850000	      0.72784130354051735000	     -0.17526174367491582000	     -3.60868090945044840000	     -6.43778275753961980000	     -0.05617307645976669900	     22.31923873712850800000	     10.94091557164144700000	      4.98668242819699530000	    -26.50804820504305700000	      7.08160533843518180000	     -0.00000000000001706206	     -0.00000000000000264534	      7.40923770295093750000	     -8.64871887711209910000	    -13.82149622906402600000	    -62.31885981718043200000	    -18.87624043140745700000	     -0.00000000000000034759	     -0.00000000000000027403	     -1.16042408423553310000	      9.88513378962571920000	      1.31942283560211120000
      0.18933000000000000000	      1.33412316422173020000	      0.72820576619983501000	     -0.17527095724806102000	     -3.62410074960286630000	     -6.39014768133155190000	     -0.05227718461882622400	     22.16366815097902100000	     10.89529822802242300000	      4.97967001967141790000	    -26.37393969401494700000	      7.10461562752044080000	     -0.00000000000001744999	     -0.00000000000000287830	      7.70850664647715340000	     -8.59009102626649050000	    -13.82040765361036200000	    -62.47860409507547500000	    -18.69733861704266400000	     -0.00000000000000036401	     -0.00000000000000024286	     -1.17503518485087330000	      9.82089134965567640000	      1.37191061787986410000
      0.19033000000000000000	      1.33522137199706760000	      0.72856723558968273000	     -0.17527951013736340000	     -3.64186965850649310000	     -6.34623889694165210000	     -0.04630923291743539000	     22.01092120088197700000	     10.85283016729581000000	      4.96783819735372760000	    -26.23876649959235500000	      7.12821171498005410000	     -0.00000000000001782906	     -0.00000000000000312153	      8.01083448829118620000	     -8.53579320488817930000	    -13.81375689254609500000	    -62.63033211297208400000	    -18.57783867443302500000	     -0.00000000000000038129	     -0.00000000000000020982	     -1.18627986392201180000	      9.75993493385667320000	      1.42309502084980970000
      0.19133000000000000000	      1.33631905487059990000	      0.72892583947961609000	     -0.17528742802962741000	     -3.66188410863792770000	     -6.30590063759947840000	     -0.03835471366219681000	     21.86087273613417300000	     10.81338034505755300000	      4.95139002705640770000	    -26.10256998983281900000	      7.15239327779336160000	     -0.00000000000001819969	     -0.00000000000000337439	      8.31608451100154690000	     -8.48564311134353310000	    -13.80177264584996900000	    -62.77437352445696200000	    -18.51522276920322700000	     -0.00000000000000039928	     -0.00000000000000017558	     -1.19430465504373820000	      9.70212569463797970000	      1.47303163912506530000
      0.19233000000000000000	      1.33741673600707230000	      0.72928441529990451000	     -0.17529531328913175000	     -3.68190222319438480000	     -6.26560486315685860000	     -0.03037832660518170100	     21.71082931449607000000	     10.77397175682622400000	      4.93489654940985820000	    -25.96635394732730300000	      7.17666828908145500000	     -0.00000000000001856994	     -0.00000000000000362735	      8.62131989378999290000	     -8.43553633150798280000	    -13.78970809912150000000	    -62.91827366009164300000	    -18.45306917465753900000	     -0.00000000000000041738	     -0.00000000000000014154	     -1.20231650636101820000	      9.64434273349076680000	      1.52297035511493960000
      0.19333000000000000000	      1.33851421427988760000	      0.72963971298902630000	     -0.17529938751123647000	     -3.70234828993625300000	     -6.23027071448066930000	     -0.01984809453763179700	     21.56137485560184400000	     10.73937870807760000000	      4.91311182443305580000	    -25.82785676077435600000	      7.21185673938415390000	     -0.00000000000001889487	     -0.00000000000000389200	      8.92484554407207930000	     -8.39048797048336680000	    -13.76826566251465400000	    -63.04567480653562200000	    -18.44490682468189700000	     -0.00000000000000044840	     -0.00000000000000013089	     -1.20881717446193270000	      9.58962867348068390000	      1.57315405402841570000
      0.19433000000000000000	      1.33961169255270310000	      0.72999501067814798000	     -0.17530346173334116000	     -3.72279435667812120000	     -6.19493656580447990000	     -0.00931786247008189320	     21.41192039670761800000	     10.70478565932897700000	      4.89132709945625340000	    -25.68935957422141300000	      7.24704518968685290000	     -0.00000000000001921980	     -0.00000000000000415666	      9.22837119435416580000	     -8.34543960945875090000	    -13.74682322590780900000	    -63.17307595297959500000	    -18.43674447470625900000	     -0.00000000000000047941	     -0.00000000000000012025	     -1.21531784256284750000	      9.53491461347060110000	      1.62333775294189180000
      0.19533000000000000000	      1.34070948786428250000	      0.73034965346491021000	     -0.17530421603090354000	     -3.74161743617865340000	     -6.15988705830923780000	      0.00092988692953920287	     21.26071912119819300000	     10.67103678714269500000	      4.87039430366252550000	    -25.55028246160529200000	      7.28913105547120830000	     -0.00000000000001954283	     -0.00000000000000439310	      9.52716550794235490000	     -8.30002200783331470000	    -13.72303792944253300000	    -63.29424003155671100000	    -18.40088071104028300000	     -0.00000000000000052210	     -0.00000000000000008009	     -1.22348226893128560000	      9.47908628600469960000	      1.67559981265650100000
      0.19633000000000000000	      1.34180758962775440000	      0.73070366321845881000	     -0.17530176126612096000	     -3.75887172482983000000	     -6.12511268697566360000	      0.01090458660131178900	     21.10782936049822900000	     10.63810390194171500000	      4.85028498859166920000	    -25.41064478838953300000	      7.33788401143115990000	     -0.00000000000001986404	     -0.00000000000000460225	      9.82138647830173110000	     -8.25424749565366870000	    -13.69698800820780700000	    -63.40937531659366000000	    -18.33824056663340900000	     -0.00000000000000057607	     -0.00000000000000001141	     -1.23325489570891620000	      9.42218089980173800000	      1.72987083049686550000
      0.19733000000000001000	      1.34290569608363340000	      0.73105765596787198000	     -0.17529925115296074000	     -3.77610275198725940000	     -6.09032456417972230000	      0.02086479902222214400	     20.95491637878142700000	     10.60516778012541100000	      4.83021313037265010000	    -25.27100541136972500000	      7.38669867090734120000	     -0.00000000000002018517	     -0.00000000000000481190	     10.11553001976580800000	     -8.20844471176913790000	    -13.67091766675610000000	    -63.52444316776214400000	    -18.27481416067989200000	     -0.00000000000000063020	      0.00000000000000005771	     -1.24305307427210420000	      9.36523870352853650000	      1.78418242546477710000
      0.19833000000000001000	      1.34400435054520790000	      0.73140966287861897000	     -0.17529027714463877000	     -3.79061717093917180000	     -6.05393046818558390000	      0.02913310872200029100	     20.79929151597987100000	     10.57185366814871400000	      4.81451569419891530000	    -25.13116705452085500000	      7.44271941440909400000	     -0.00000000000002049735	     -0.00000000000000507921	     10.40063097890009700000	     -8.15934019901419920000	    -13.64246253739643100000	    -63.63163571210723300000	    -18.11956370453645300000	     -0.00000000000000070327	      0.00000000000000017753	     -1.25583533421313010000	      9.30399762000660500000	      1.84323284584310530000
      0.19933000000000001000	      1.34510304620115950000	      0.73176098626869313000	     -0.17527962813274017000	     -3.80460031500909630000	     -6.01681165895445340000	      0.03691723856132214700	     20.64321824857907800000	     10.53807460497176000000	      4.80006657472116950000	    -24.99137206791533600000	      7.49860091188259140000	     -0.00000000000002081152	     -0.00000000000000535101	     10.68369683380741000000	     -8.10908416038120090000	    -13.61335692512874100000	    -63.73673753815052800000	    -17.94414170772469300000	     -0.00000000000000077967	      0.00000000000000029971	     -1.26920665605576420000	      9.24129686482682010000	      1.90350749470747640000
      0.20033000000000001000	      1.34620186544024230000	      0.73211025909674898000	     -0.17526395411011178000	     -3.81698963443305580000	     -5.97751871001234390000	      0.04324882881927535200	     20.48579976738057000000	     10.50290068819403700000	      4.78936240533139030000	    -24.85170719203988200000	      7.55406467127132240000	     -0.00000000000002113165	     -0.00000000000000563631	     10.96065737603380600000	     -8.05537354411403510000	    -13.58229986413697800000	    -63.83556720928844200000	    -17.70820508890797000000	     -0.00000000000000086606	      0.00000000000000042895	     -1.28434516360322280000	      9.17421709467347310000	      1.96745482902997560000
      0.20133000000000001000	      1.34730068467932500000	      0.73245953192480484000	     -0.17524828008748339000	     -3.82937895385701530000	     -5.93822576107023450000	      0.04958041907722856400	     20.32838128618205800000	     10.46772677141631500000	      4.77865823594161030000	    -24.71204231616442800000	      7.60952843066005350000	     -0.00000000000002145178	     -0.00000000000000592160	     11.23761791826020200000	     -8.00166292784686920000	    -13.55124280314521500000	    -63.93439688042634800000	    -17.47226847009124700000	     -0.00000000000000095245	      0.00000000000000055819	     -1.29948367115068140000	      9.10713732452012790000	      2.03140216335247500000
